<mxfile host="app.diagrams.net" modified="2023-06-14T06:26:09.473Z" agent="Mozilla/5.0 (Windows NT 10.0; Win64; x64) AppleWebKit/537.36 (KHTML, like Gecko) Chrome/114.0.0.0 Safari/537.36" etag="NURRJMPtgavBO2kSEOAa" version="21.3.8" type="github">
  <diagram name="第 1 页" id="pvDsTN1WZWuoH9hocYKX">
    <mxGraphModel dx="2074" dy="1156" grid="1" gridSize="10" guides="1" tooltips="1" connect="1" arrows="1" fold="1" page="1" pageScale="1" pageWidth="827" pageHeight="1169" math="0" shadow="0">
      <root>
        <mxCell id="0" />
        <mxCell id="1" parent="0" />
        <mxCell id="OVFr98HRhF4C5H6vrz8P-69" style="edgeStyle=orthogonalEdgeStyle;rounded=0;orthogonalLoop=1;jettySize=auto;html=1;entryX=0.5;entryY=0;entryDx=0;entryDy=0;" edge="1" parent="1" source="OVFr98HRhF4C5H6vrz8P-2" target="OVFr98HRhF4C5H6vrz8P-7">
          <mxGeometry relative="1" as="geometry" />
        </mxCell>
        <mxCell id="OVFr98HRhF4C5H6vrz8P-2" value="获取空库位" style="whiteSpace=wrap;html=1;rounded=0;" vertex="1" parent="1">
          <mxGeometry x="454" y="680" width="120" height="60" as="geometry" />
        </mxCell>
        <mxCell id="OVFr98HRhF4C5H6vrz8P-6" value="" style="edgeStyle=orthogonalEdgeStyle;rounded=0;orthogonalLoop=1;jettySize=auto;html=1;" edge="1" parent="1" source="OVFr98HRhF4C5H6vrz8P-7">
          <mxGeometry relative="1" as="geometry">
            <mxPoint x="664" y="1080" as="targetPoint" />
          </mxGeometry>
        </mxCell>
        <mxCell id="OVFr98HRhF4C5H6vrz8P-7" value="找到第一个可分配库位" style="whiteSpace=wrap;html=1;rounded=0;" vertex="1" parent="1">
          <mxGeometry x="454" y="1050" width="120" height="60" as="geometry" />
        </mxCell>
        <mxCell id="OVFr98HRhF4C5H6vrz8P-24" value="返回" style="ellipse;whiteSpace=wrap;html=1;rounded=0;" vertex="1" parent="1">
          <mxGeometry x="1186" y="1040" width="80" height="80" as="geometry" />
        </mxCell>
        <mxCell id="OVFr98HRhF4C5H6vrz8P-55" value="获取在行维度上相邻两空库位容器状态都是空的" style="ellipse;shape=cloud;whiteSpace=wrap;html=1;" vertex="1" parent="1">
          <mxGeometry x="574" y="660" width="120" height="80" as="geometry" />
        </mxCell>
        <mxCell id="OVFr98HRhF4C5H6vrz8P-60" value="" style="edgeStyle=orthogonalEdgeStyle;rounded=0;orthogonalLoop=1;jettySize=auto;html=1;" edge="1" parent="1" source="OVFr98HRhF4C5H6vrz8P-57" target="OVFr98HRhF4C5H6vrz8P-59">
          <mxGeometry relative="1" as="geometry" />
        </mxCell>
        <mxCell id="OVFr98HRhF4C5H6vrz8P-57" value="查看是否有锁" style="whiteSpace=wrap;html=1;rounded=0;" vertex="1" parent="1">
          <mxGeometry x="840" y="1048" width="120" height="60" as="geometry" />
        </mxCell>
        <mxCell id="OVFr98HRhF4C5H6vrz8P-58" value="有" style="edgeLabel;html=1;align=center;verticalAlign=middle;resizable=0;points=[];" vertex="1" connectable="0" parent="1">
          <mxGeometry x="1105" y="1078" as="geometry" />
        </mxCell>
        <mxCell id="OVFr98HRhF4C5H6vrz8P-61" style="edgeStyle=orthogonalEdgeStyle;rounded=0;orthogonalLoop=1;jettySize=auto;html=1;" edge="1" parent="1" source="OVFr98HRhF4C5H6vrz8P-59">
          <mxGeometry relative="1" as="geometry">
            <mxPoint x="1186" y="1080" as="targetPoint" />
          </mxGeometry>
        </mxCell>
        <mxCell id="OVFr98HRhF4C5H6vrz8P-63" value="无" style="edgeStyle=orthogonalEdgeStyle;rounded=0;orthogonalLoop=1;jettySize=auto;html=1;" edge="1" parent="1" source="OVFr98HRhF4C5H6vrz8P-59" target="OVFr98HRhF4C5H6vrz8P-62">
          <mxGeometry relative="1" as="geometry" />
        </mxCell>
        <mxCell id="OVFr98HRhF4C5H6vrz8P-59" value="" style="rhombus;whiteSpace=wrap;html=1;rounded=0;" vertex="1" parent="1">
          <mxGeometry x="1026" y="1060" width="40" height="40" as="geometry" />
        </mxCell>
        <mxCell id="OVFr98HRhF4C5H6vrz8P-62" value="加锁返回" style="whiteSpace=wrap;html=1;rounded=0;" vertex="1" parent="1">
          <mxGeometry x="986" y="1170" width="120" height="60" as="geometry" />
        </mxCell>
        <mxCell id="OVFr98HRhF4C5H6vrz8P-66" style="edgeStyle=orthogonalEdgeStyle;rounded=0;orthogonalLoop=1;jettySize=auto;html=1;" edge="1" parent="1" source="OVFr98HRhF4C5H6vrz8P-65" target="OVFr98HRhF4C5H6vrz8P-57">
          <mxGeometry relative="1" as="geometry" />
        </mxCell>
        <mxCell id="OVFr98HRhF4C5H6vrz8P-67" value="找到" style="edgeLabel;html=1;align=center;verticalAlign=middle;resizable=0;points=[];" vertex="1" connectable="0" parent="OVFr98HRhF4C5H6vrz8P-66">
          <mxGeometry x="-0.2582" y="-2" relative="1" as="geometry">
            <mxPoint as="offset" />
          </mxGeometry>
        </mxCell>
        <mxCell id="OVFr98HRhF4C5H6vrz8P-71" value="未找到" style="edgeStyle=orthogonalEdgeStyle;rounded=0;orthogonalLoop=1;jettySize=auto;html=1;" edge="1" parent="1" source="OVFr98HRhF4C5H6vrz8P-65">
          <mxGeometry relative="1" as="geometry">
            <mxPoint x="680" y="1170" as="targetPoint" />
          </mxGeometry>
        </mxCell>
        <mxCell id="OVFr98HRhF4C5H6vrz8P-65" value="" style="rhombus;whiteSpace=wrap;html=1;rounded=0;" vertex="1" parent="1">
          <mxGeometry x="660" y="1060" width="40" height="40" as="geometry" />
        </mxCell>
        <mxCell id="OVFr98HRhF4C5H6vrz8P-73" value="调用双工位入库分配策略（库前,库后）" style="ellipse;whiteSpace=wrap;html=1;rounded=0;" vertex="1" parent="1">
          <mxGeometry x="640" y="1170" width="80" height="80" as="geometry" />
        </mxCell>
        <mxCell id="OVFr98HRhF4C5H6vrz8P-75" style="edgeStyle=orthogonalEdgeStyle;rounded=0;orthogonalLoop=1;jettySize=auto;html=1;entryX=0.5;entryY=0;entryDx=0;entryDy=0;" edge="1" parent="1" source="OVFr98HRhF4C5H6vrz8P-74" target="OVFr98HRhF4C5H6vrz8P-2">
          <mxGeometry relative="1" as="geometry" />
        </mxCell>
        <mxCell id="OVFr98HRhF4C5H6vrz8P-74" value="校验仓库" style="rounded=0;whiteSpace=wrap;html=1;" vertex="1" parent="1">
          <mxGeometry x="454" y="420" width="120" height="60" as="geometry" />
        </mxCell>
      </root>
    </mxGraphModel>
  </diagram>
</mxfile>
